<svg width="672" height="546" viewBox="0 0 672 546" fill="none" xmlns="http://www.w3.org/2000/svg">
<path d="M663.5 302C663.5 365.984 627.804 424.658 568.593 467.656C509.392 510.648 427.185 537.5 336 537.5C244.815 537.5 162.608 510.648 103.407 467.656C44.1965 424.658 8.5 365.984 8.5 302C8.5 238.016 44.1965 179.342 103.407 136.344C162.608 93.3523 244.815 66.5 336 66.5C427.185 66.5 509.392 93.3523 568.593 136.344C627.804 179.342 663.5 238.016 663.5 302Z" fill="url(#paint0_linear_20_27)" stroke="black" stroke-width="17"/>
<path d="M663.5 244C663.5 307.984 627.804 366.658 568.593 409.656C509.392 452.648 427.185 479.5 336 479.5C244.815 479.5 162.608 452.648 103.407 409.656C44.1965 366.658 8.5 307.984 8.5 244C8.5 180.016 44.1965 121.342 103.407 78.3437C162.608 35.3523 244.815 8.5 336 8.5C427.185 8.5 509.392 35.3523 568.593 78.3437C627.804 121.342 663.5 180.016 663.5 244Z" fill="url(#paint1_linear_20_27)" stroke="black" stroke-width="17"/>
<path d="M466.422 127.25C465.368 124.141 464.111 123.323 462.146 122.545C457.851 120.95 450.574 123.364 450.574 123.364C450.574 123.364 192.977 216.151 178.26 226.42C175.092 228.629 174.03 229.938 173.503 231.452C170.959 238.734 178.885 241.966 178.885 241.966L245.28 263.65C245.28 263.65 247.755 264.018 248.637 263.445C263.741 253.872 400.602 167.303 408.496 164.398C409.741 164.03 410.664 164.439 410.419 165.298C407.258 176.426 288.388 282.264 288.388 282.264C288.388 282.264 287.935 282.837 287.649 283.492L287.494 283.41L281.299 349.4C281.299 349.4 278.702 369.611 298.878 349.4C313.113 335.122 326.886 323.176 333.779 317.407C356.609 333.199 381.178 350.669 391.782 359.792C397.107 364.374 401.562 365.111 405.229 364.988C415.294 364.62 418.104 353.533 418.104 353.533C418.104 353.533 465.046 164.234 466.614 138.869C466.769 136.373 466.981 134.819 466.998 133.1C467.026 130.728 466.806 128.355 466.422 127.25Z" fill="white"/>
<defs>
<linearGradient id="paint0_linear_20_27" x1="188.539" y1="215.5" x2="731.999" y2="325.317" gradientUnits="userSpaceOnUse">
<stop stop-color="#152546"/>
<stop offset="1" stop-color="#003199"/>
</linearGradient>
<linearGradient id="paint1_linear_20_27" x1="188.539" y1="157.5" x2="731.999" y2="267.317" gradientUnits="userSpaceOnUse">
<stop stop-color="#0052FF"/>
<stop offset="1" stop-color="#003199"/>
</linearGradient>
</defs>
</svg>
